<svg width="112" height="30" viewBox="0 0 112 30" fill="none" xmlns="http://www.w3.org/2000/svg">
<g clip-path="url(#clip0_92_451)">
<path d="M14.7833 12.9267C14.4199 12.9267 14.0933 12.7533 13.8366 12.4933C13.8333 12.4933 13.8333 12.49 13.8333 12.49C12.4399 11.0967 7.35325 11.0967 5.95992 12.49L5.95659 12.4933C5.63992 12.8133 5.22992 13.0267 4.77659 13.0267H4.33325V14.13C4.84992 14.13 5.25659 14.5533 5.24992 15.07C5.23659 16.1467 5.45992 17.2133 5.96325 17.62C7.49325 18.8567 12.3033 18.8567 13.8366 17.62C14.4099 17.16 14.6199 15.8333 14.5266 14.62C14.5066 14.3433 14.7233 14.11 14.9999 14.11C15.2766 14.11 15.4966 14.3433 15.4733 14.62C15.3799 15.8333 15.5933 17.16 16.1633 17.62C17.6933 18.8567 22.5033 18.8567 24.0366 17.62C24.5399 17.2133 24.7633 16.1433 24.7499 15.07C24.7433 14.5533 25.1499 14.13 25.6666 14.13V13.0267H25.2199C24.7699 13.0267 24.3566 12.8133 24.0399 12.4933L24.0366 12.49C22.6433 11.0967 17.5566 11.0967 16.1633 12.49C16.1633 12.49 16.1633 12.4933 16.1599 12.4933C15.9066 12.75 15.5766 12.9267 15.2133 12.9267H14.7833Z" fill="#666666"/>
<path d="M20.1032 17.8533C18.5599 17.8533 17.1866 17.55 16.6066 17.08C16.4232 16.9333 16.2066 16.3767 16.1599 15.5033C16.0966 14.32 16.3732 13.2767 16.6632 12.9867C17.1666 12.4833 18.5499 12.1467 20.1066 12.1467C21.6632 12.1467 23.0466 12.4833 23.5499 12.9867C23.8399 13.2767 24.1132 14.32 24.0532 15.5033C24.0066 16.3767 23.7899 16.9333 23.6066 17.08C23.0199 17.55 21.6466 17.8533 20.1032 17.8533ZM9.89658 17.8533C11.4399 17.8533 12.8132 17.55 13.3932 17.08C13.5766 16.9333 13.7932 16.3767 13.8399 15.5033C13.9032 14.32 13.6266 13.2767 13.3366 12.9867C12.8332 12.4833 11.4499 12.1467 9.89325 12.1467C8.33658 12.1467 6.95325 12.4833 6.44991 12.9867C6.15991 13.2767 5.88658 14.32 5.94658 15.5033C5.99325 16.3767 6.20991 16.9333 6.39325 17.08C6.97991 17.55 8.35325 17.8533 9.89658 17.8533Z" fill="#F5F5F5"/>
<path d="M15 0.9375C12.2187 0.9375 9.49987 1.76225 7.1873 3.30746C4.87473 4.85267 3.07231 7.04893 2.00795 9.61851C0.943593 12.1881 0.665109 15.0156 1.20771 17.7435C1.75032 20.4713 3.08964 22.977 5.05632 24.9437C7.02299 26.9104 9.52869 28.2497 12.2565 28.7923C14.9844 29.3349 17.8119 29.0564 20.3815 27.9921C22.9511 26.9277 25.1473 25.1253 26.6925 22.8127C28.2378 20.5001 29.0625 17.7813 29.0625 15C29.0625 11.2704 27.5809 7.69354 24.9437 5.05631C22.3065 2.41908 18.7296 0.9375 15 0.9375ZM15 27.1875C12.6742 27.1881 10.3968 26.523 8.43688 25.2708C6.47693 24.0186 4.9163 22.2317 3.93934 20.121C2.96239 18.0104 2.60992 15.6642 2.92357 13.3596C3.23722 11.0551 4.20388 8.88843 5.70938 7.11563L22.8844 24.2906C20.6861 26.1661 17.8896 27.1936 15 27.1875ZM24.2906 22.8844L7.11563 5.70938C9.44812 3.72787 12.4409 2.69671 15.4989 2.8209C18.5569 2.94509 21.4562 4.21555 23.6203 6.37968C25.7845 8.5438 27.0549 11.4431 27.1791 14.5011C27.3033 17.5591 26.2721 20.5519 24.2906 22.8844Z" fill="#B73831"/>
<path d="M15 0.937512C13.1529 0.935111 11.3235 1.29771 9.61699 2.00449C7.91047 2.71126 6.36042 3.74828 5.05591 5.05595L24.944 24.9441C26.9109 22.9774 28.2503 20.4716 28.793 17.7437C29.3356 15.0157 29.0572 12.1881 27.9927 9.61842C26.9283 7.04875 25.1258 4.85243 22.8131 3.30723C20.5004 1.76204 17.7814 0.937364 15 0.937512ZM24.2906 22.8844L7.1156 5.70939C9.44809 3.72788 12.4409 2.69672 15.4989 2.82091C18.5569 2.94511 21.4562 4.21556 23.6203 6.37969C25.7844 8.54381 27.0549 11.4431 27.1791 14.5011C27.3033 17.5591 26.2721 20.5519 24.2906 22.8844Z" fill="#D4483E"/>
</g>
<path d="M39.7744 21V10.52H41.4544L44.9424 16.712L46.0464 18.92H46.1104C46.0784 18.3867 46.0358 17.816 45.9824 17.208C45.9291 16.6 45.9024 16.0133 45.9024 15.448V10.52H47.4544V21H45.7744L42.2864 14.792L41.1824 12.6H41.1184C41.1611 13.1333 41.2038 13.6933 41.2464 14.28C41.2998 14.8667 41.3264 15.448 41.3264 16.024V21H39.7744ZM53.2039 21.192C52.5533 21.192 51.9506 21.032 51.3959 20.712C50.8413 20.392 50.3879 19.928 50.0359 19.32C49.6946 18.7013 49.5239 17.96 49.5239 17.096C49.5239 16.232 49.6946 15.496 50.0359 14.888C50.3879 14.2693 50.8413 13.8 51.3959 13.48C51.9506 13.1493 52.5533 12.984 53.2039 12.984C53.8439 12.984 54.4413 13.1493 54.9959 13.48C55.5613 13.8 56.0146 14.2693 56.3559 14.888C56.7079 15.496 56.8839 16.232 56.8839 17.096C56.8839 17.96 56.7079 18.7013 56.3559 19.32C56.0146 19.928 55.5613 20.392 54.9959 20.712C54.4413 21.032 53.8439 21.192 53.2039 21.192ZM53.2039 19.864C53.6199 19.864 53.9773 19.752 54.2759 19.528C54.5853 19.2933 54.8199 18.968 54.9799 18.552C55.1399 18.136 55.2199 17.6507 55.2199 17.096C55.2199 16.5413 55.1399 16.056 54.9799 15.64C54.8199 15.2133 54.5853 14.888 54.2759 14.664C53.9773 14.4293 53.6199 14.312 53.2039 14.312C52.7879 14.312 52.4306 14.4293 52.1319 14.664C51.8333 14.888 51.5986 15.2133 51.4279 15.64C51.2679 16.056 51.1879 16.5413 51.1879 17.096C51.1879 17.6507 51.2679 18.136 51.4279 18.552C51.5986 18.968 51.8333 19.2933 52.1319 19.528C52.4306 19.752 52.7879 19.864 53.2039 19.864ZM66.4214 21.192C65.4828 21.192 64.6454 20.984 63.9094 20.568C63.1841 20.1413 62.6134 19.5227 62.1974 18.712C61.7814 17.9013 61.5734 16.9253 61.5734 15.784C61.5734 14.9307 61.6961 14.168 61.9414 13.496C62.1974 12.824 62.5441 12.2533 62.9814 11.784C63.4188 11.304 63.9361 10.9413 64.5334 10.696C65.1308 10.4507 65.7761 10.328 66.4694 10.328C67.2054 10.328 67.8241 10.4667 68.3254 10.744C68.8374 11.0107 69.2534 11.3093 69.5734 11.64L68.6934 12.696C68.4374 12.4293 68.1334 12.2053 67.7814 12.024C67.4401 11.8427 67.0188 11.752 66.5174 11.752C65.8561 11.752 65.2801 11.912 64.7894 12.232C64.2988 12.552 63.9201 13.0107 63.6534 13.608C63.3868 14.2053 63.2534 14.9147 63.2534 15.736C63.2534 16.568 63.3814 17.288 63.6374 17.896C63.8934 18.4933 64.2668 18.9573 64.7574 19.288C65.2481 19.608 65.8561 19.768 66.5814 19.768C66.9121 19.768 67.2268 19.7253 67.5254 19.64C67.8241 19.544 68.0641 19.4107 68.2454 19.24V16.776H66.1654V15.432H69.7174V19.96C69.3761 20.312 68.9174 20.6053 68.3414 20.84C67.7761 21.0747 67.1361 21.192 66.4214 21.192ZM73.5902 21.192C73.1955 21.192 72.8809 21.112 72.6462 20.952C72.4115 20.792 72.2409 20.5627 72.1342 20.264C72.0275 19.9653 71.9742 19.6027 71.9742 19.176V9.656H73.5902V19.272C73.5902 19.4853 73.6275 19.64 73.7022 19.736C73.7875 19.8213 73.8782 19.864 73.9742 19.864C74.0169 19.864 74.0542 19.864 74.0862 19.864C74.1289 19.8533 74.1875 19.8427 74.2622 19.832L74.4702 21.048C74.3635 21.0907 74.2409 21.1227 74.1022 21.144C73.9635 21.176 73.7929 21.192 73.5902 21.192ZM78.0489 21.192C77.6009 21.192 77.2009 21.1013 76.8489 20.92C76.5076 20.728 76.2356 20.4667 76.0329 20.136C75.8409 19.7947 75.7449 19.3947 75.7449 18.936C75.7449 18.0933 76.1183 17.4427 76.8649 16.984C77.6116 16.5253 78.8009 16.2053 80.4329 16.024C80.4329 15.7253 80.3849 15.4427 80.2889 15.176C80.2036 14.9093 80.0489 14.696 79.8249 14.536C79.6116 14.376 79.3129 14.296 78.9289 14.296C78.5129 14.296 78.1129 14.376 77.7289 14.536C77.3556 14.696 77.0036 14.8827 76.6729 15.096L76.0649 14.008C76.3316 13.8373 76.6303 13.6773 76.9609 13.528C77.2916 13.368 77.6436 13.24 78.0169 13.144C78.4009 13.0373 78.8009 12.984 79.2169 12.984C79.8569 12.984 80.3849 13.1173 80.8009 13.384C81.2276 13.6507 81.5423 14.0293 81.7449 14.52C81.9476 15.0107 82.0489 15.6027 82.0489 16.296V21H80.7209L80.5929 20.104H80.5449C80.1929 20.4027 79.8089 20.6587 79.3929 20.872C78.9769 21.0853 78.5289 21.192 78.0489 21.192ZM78.5449 19.912C78.8863 19.912 79.2063 19.832 79.5049 19.672C79.8036 19.512 80.1129 19.2827 80.4329 18.984V17.048C79.6543 17.144 79.0356 17.272 78.5769 17.432C78.1289 17.592 77.8036 17.7893 77.6009 18.024C77.4089 18.2587 77.3129 18.52 77.3129 18.808C77.3129 19.192 77.4303 19.4747 77.6649 19.656C77.8996 19.8267 78.1929 19.912 78.5449 19.912ZM86.4928 21.192C85.9488 21.192 85.4155 21.0907 84.8928 20.888C84.3808 20.6747 83.9328 20.4133 83.5488 20.104L84.3168 19.064C84.6581 19.3307 85.0048 19.5493 85.3568 19.72C85.7195 19.88 86.1141 19.96 86.5408 19.96C87.0101 19.96 87.3568 19.8587 87.5808 19.656C87.8048 19.4533 87.9168 19.2027 87.9168 18.904C87.9168 18.6693 87.8315 18.472 87.6608 18.312C87.4901 18.1413 87.2715 17.9973 87.0048 17.88C86.7488 17.7627 86.4768 17.6507 86.1888 17.544C85.8368 17.4053 85.4848 17.2453 85.1328 17.064C84.7915 16.8827 84.5035 16.648 84.2688 16.36C84.0448 16.072 83.9328 15.7093 83.9328 15.272C83.9328 14.6107 84.1781 14.0667 84.6688 13.64C85.1701 13.2027 85.8528 12.984 86.7168 12.984C87.2395 12.984 87.7141 13.0747 88.1408 13.256C88.5675 13.4373 88.9355 13.6507 89.2448 13.896L88.4928 14.904C88.2155 14.7013 87.9328 14.536 87.6448 14.408C87.3675 14.28 87.0688 14.216 86.7488 14.216C86.3115 14.216 85.9861 14.312 85.7728 14.504C85.5701 14.696 85.4688 14.9253 85.4688 15.192C85.4688 15.416 85.5488 15.6027 85.7088 15.752C85.8688 15.8907 86.0768 16.0133 86.3328 16.12C86.5888 16.2267 86.8608 16.3333 87.1488 16.44C87.5115 16.5787 87.8688 16.7387 88.2208 16.92C88.5728 17.1013 88.8661 17.3413 89.1008 17.64C89.3355 17.928 89.4528 18.3173 89.4528 18.808C89.4528 19.2453 89.3355 19.6453 89.1008 20.008C88.8768 20.3707 88.5461 20.6587 88.1088 20.872C87.6715 21.0853 87.1328 21.192 86.4928 21.192ZM93.3053 21.192C92.7613 21.192 92.228 21.0907 91.7053 20.888C91.1933 20.6747 90.7453 20.4133 90.3613 20.104L91.1293 19.064C91.4706 19.3307 91.8173 19.5493 92.1693 19.72C92.532 19.88 92.9266 19.96 93.3533 19.96C93.8226 19.96 94.1693 19.8587 94.3933 19.656C94.6173 19.4533 94.7293 19.2027 94.7293 18.904C94.7293 18.6693 94.644 18.472 94.4733 18.312C94.3026 18.1413 94.084 17.9973 93.8173 17.88C93.5613 17.7627 93.2893 17.6507 93.0013 17.544C92.6493 17.4053 92.2973 17.2453 91.9453 17.064C91.604 16.8827 91.316 16.648 91.0813 16.36C90.8573 16.072 90.7453 15.7093 90.7453 15.272C90.7453 14.6107 90.9906 14.0667 91.4813 13.64C91.9826 13.2027 92.6653 12.984 93.5293 12.984C94.052 12.984 94.5266 13.0747 94.9533 13.256C95.38 13.4373 95.748 13.6507 96.0573 13.896L95.3053 14.904C95.028 14.7013 94.7453 14.536 94.4573 14.408C94.18 14.28 93.8813 14.216 93.5613 14.216C93.124 14.216 92.7986 14.312 92.5853 14.504C92.3826 14.696 92.2813 14.9253 92.2813 15.192C92.2813 15.416 92.3613 15.6027 92.5213 15.752C92.6813 15.8907 92.8893 16.0133 93.1453 16.12C93.4013 16.2267 93.6733 16.3333 93.9613 16.44C94.324 16.5787 94.6813 16.7387 95.0333 16.92C95.3853 17.1013 95.6786 17.3413 95.9133 17.64C96.148 17.928 96.2653 18.3173 96.2653 18.808C96.2653 19.2453 96.148 19.6453 95.9133 20.008C95.6893 20.3707 95.3586 20.6587 94.9213 20.872C94.484 21.0853 93.9453 21.192 93.3053 21.192ZM101.254 21.192C100.539 21.192 99.8938 21.032 99.3178 20.712C98.7525 20.3813 98.2991 19.912 97.9578 19.304C97.6165 18.696 97.4458 17.96 97.4458 17.096C97.4458 16.2533 97.6165 15.528 97.9578 14.92C98.2991 14.3013 98.7418 13.8267 99.2858 13.496C99.8298 13.1547 100.406 12.984 101.014 12.984C101.696 12.984 102.272 13.1387 102.742 13.448C103.222 13.7573 103.584 14.1893 103.83 14.744C104.075 15.2987 104.198 15.944 104.198 16.68C104.198 16.8293 104.187 16.984 104.166 17.144C104.155 17.2933 104.139 17.416 104.118 17.512H98.7098L98.6938 16.392H102.79C102.79 15.7093 102.64 15.1813 102.342 14.808C102.054 14.4347 101.622 14.248 101.046 14.248C100.704 14.248 100.374 14.344 100.054 14.536C99.7338 14.728 99.4671 15.0373 99.2538 15.464C99.0511 15.88 98.9498 16.424 98.9498 17.096C98.9498 17.7467 99.0671 18.28 99.3018 18.696C99.5365 19.112 99.8405 19.4213 100.214 19.624C100.598 19.8267 101.014 19.928 101.462 19.928C101.814 19.928 102.139 19.8747 102.438 19.768C102.747 19.6613 103.046 19.5173 103.334 19.336L103.894 20.36C103.531 20.5947 103.126 20.792 102.678 20.952C102.24 21.112 101.766 21.192 101.254 21.192ZM108.149 21.192C107.605 21.192 107.072 21.0907 106.549 20.888C106.037 20.6747 105.589 20.4133 105.205 20.104L105.973 19.064C106.314 19.3307 106.661 19.5493 107.013 19.72C107.376 19.88 107.77 19.96 108.197 19.96C108.666 19.96 109.013 19.8587 109.237 19.656C109.461 19.4533 109.573 19.2027 109.573 18.904C109.573 18.6693 109.488 18.472 109.317 18.312C109.146 18.1413 108.928 17.9973 108.661 17.88C108.405 17.7627 108.133 17.6507 107.845 17.544C107.493 17.4053 107.141 17.2453 106.789 17.064C106.448 16.8827 106.16 16.648 105.925 16.36C105.701 16.072 105.589 15.7093 105.589 15.272C105.589 14.6107 105.834 14.0667 106.325 13.64C106.826 13.2027 107.509 12.984 108.373 12.984C108.896 12.984 109.37 13.0747 109.797 13.256C110.224 13.4373 110.592 13.6507 110.901 13.896L110.149 14.904C109.872 14.7013 109.589 14.536 109.301 14.408C109.024 14.28 108.725 14.216 108.405 14.216C107.968 14.216 107.642 14.312 107.429 14.504C107.226 14.696 107.125 14.9253 107.125 15.192C107.125 15.416 107.205 15.6027 107.365 15.752C107.525 15.8907 107.733 16.0133 107.989 16.12C108.245 16.2267 108.517 16.3333 108.805 16.44C109.168 16.5787 109.525 16.7387 109.877 16.92C110.229 17.1013 110.522 17.3413 110.757 17.64C110.992 17.928 111.109 18.3173 111.109 18.808C111.109 19.2453 110.992 19.6453 110.757 20.008C110.533 20.3707 110.202 20.6587 109.765 20.872C109.328 21.0853 108.789 21.192 108.149 21.192Z" fill="#152745"/>
<defs>
<clipPath id="clip0_92_451">
<rect width="30" height="30" fill="white"/>
</clipPath>
</defs>
</svg>
