<svg width="97" height="30" viewBox="0 0 97 30" fill="none" xmlns="http://www.w3.org/2000/svg">
<g clip-path="url(#clip0_92_442)">
<path d="M19.8159 17.3259L19.5591 16.4241L21.4561 15.8822C22.2548 15.6523 22.9572 15.1689 23.4572 14.505C23.7478 14.1159 23.9053 13.6435 23.9062 13.1578C23.9063 12.9821 23.8586 12.8098 23.7683 12.6591C23.678 12.5084 23.5485 12.385 23.3936 12.3021C23.2387 12.2193 23.0642 12.18 22.8888 12.1886C22.7133 12.1971 22.5435 12.2531 22.3973 12.3506L19.9477 13.9837L19.4273 13.2037L21.8775 11.5706C22.1648 11.379 22.4987 11.269 22.8436 11.2523C23.1886 11.2356 23.5315 11.3128 23.836 11.4758C24.1405 11.6387 24.395 11.8812 24.5725 12.1774C24.75 12.4736 24.8437 12.8125 24.8438 13.1578C24.8424 13.8464 24.6192 14.5162 24.2072 15.068C23.5839 15.8949 22.7089 16.4971 21.7139 16.7841L19.8159 17.3259ZM10.1841 17.3259L8.28656 16.7841C7.2912 16.4973 6.41599 15.8949 5.79281 15.0675C5.38076 14.516 5.15753 13.8463 5.15625 13.1578C5.15627 12.8125 5.25001 12.4736 5.42748 12.1774C5.60496 11.8812 5.8595 11.6387 6.16398 11.4758C6.46845 11.3128 6.81144 11.2356 7.15636 11.2523C7.50128 11.269 7.83519 11.379 8.1225 11.5706L10.5727 13.2037L10.0523 13.9837L7.60266 12.3506C7.45653 12.2531 7.28668 12.1971 7.11122 12.1886C6.93576 12.18 6.76127 12.2193 6.60637 12.3021C6.45147 12.385 6.32197 12.5084 6.23169 12.6591C6.14141 12.8098 6.09374 12.9821 6.09375 13.1578C6.09462 13.6433 6.25211 14.1156 6.54281 14.5045C7.04277 15.1688 7.74533 15.6524 8.54438 15.8822L10.4409 16.4241L10.1841 17.3259Z" fill="#7C909B"/>
<path d="M14.9358 20.625C14.3563 20.6251 13.7797 20.5443 13.2225 20.385C11.6565 19.9384 10.3274 18.8968 9.51938 17.483C9.11698 16.7773 8.90564 15.9788 8.90625 15.1664V12.6562L13.1578 11.4966C13.7582 11.333 14.3777 11.25 15 11.25C15.6223 11.25 16.2418 11.333 16.8422 11.4966L21.0938 12.6562V15.1664C21.094 15.9794 20.882 16.7784 20.4788 17.4844C19.6708 18.8982 18.3416 19.9398 16.7756 20.3864C16.219 20.545 15.643 20.6253 15.0642 20.625H14.9358Z" fill="#94A4AC"/>
<path d="M15 11.25C14.3777 11.25 13.7582 11.333 13.1578 11.4966L9.84375 12.4008V13.2914C9.84347 14.1044 10.0555 14.9034 10.4588 15.6094C11.0043 16.5637 11.7924 17.3569 12.7433 17.9085C13.6942 18.46 14.774 18.7503 15.8733 18.75H16.0017C16.9604 18.7509 17.9063 18.5298 18.7653 18.1042C19.6243 17.6785 20.3731 17.0599 20.9531 16.2966C21.0459 15.927 21.0932 15.5475 21.0938 15.1664V12.6562L16.8422 11.4966C16.2418 11.333 15.6223 11.25 15 11.25Z" fill="#B3BEC3"/>
<path d="M15.0001 15C13.7165 14.9999 12.4378 14.8424 11.1924 14.5312L11.1348 14.5167L11.3654 13.6083L11.4212 13.6228C13.7721 14.2064 16.23 14.2064 18.5809 13.6228L18.6348 13.6087L18.8654 14.5172L18.8096 14.5312C17.5637 14.8425 16.2843 15 15.0001 15ZM15.0001 16.875C13.392 16.8764 11.7985 16.5694 10.306 15.9708L10.1392 15.9042L10.486 15.0333L10.6538 15.1003C13.4446 16.2117 16.5551 16.2117 19.3459 15.1003L19.5142 15.0333L19.861 15.9042L19.6937 15.9708C18.2014 16.5695 16.608 16.8764 15.0001 16.875ZM15.0001 18.75C14.0279 18.75 13.0594 18.6307 12.1163 18.3947L11.6054 18.2672L11.8323 17.3578L12.3432 17.4858C14.0879 17.9198 15.9123 17.9198 17.657 17.4858L18.1679 17.3578L18.3948 18.2672L17.8838 18.3947C16.9408 18.6307 15.9723 18.75 15.0001 18.75Z" fill="#7C909B"/>
<path d="M15 0.9375C12.2187 0.9375 9.49987 1.76225 7.1873 3.30746C4.87473 4.85267 3.07231 7.04893 2.00795 9.61851C0.943593 12.1881 0.665109 15.0156 1.20771 17.7435C1.75032 20.4713 3.08964 22.977 5.05632 24.9437C7.02299 26.9104 9.52869 28.2497 12.2565 28.7923C14.9844 29.3349 17.8119 29.0564 20.3815 27.9921C22.9511 26.9277 25.1473 25.1253 26.6925 22.8127C28.2378 20.5001 29.0625 17.7813 29.0625 15C29.0625 11.2704 27.5809 7.69354 24.9437 5.05631C22.3065 2.41908 18.7296 0.9375 15 0.9375ZM15 27.1875C12.6742 27.1881 10.3968 26.523 8.43688 25.2708C6.47693 24.0186 4.9163 22.2317 3.93934 20.121C2.96239 18.0104 2.60992 15.6642 2.92357 13.3596C3.23722 11.0551 4.20388 8.88843 5.70938 7.11563L22.8844 24.2906C20.6861 26.1661 17.8896 27.1936 15 27.1875ZM24.2906 22.8844L7.11563 5.70938C9.44812 3.72787 12.4409 2.69671 15.4989 2.8209C18.5569 2.94509 21.4562 4.21555 23.6203 6.37968C25.7845 8.5438 27.0549 11.4431 27.1791 14.5011C27.3033 17.5591 26.2721 20.5519 24.2906 22.8844Z" fill="#B73831"/>
<path d="M15 0.937512C13.1529 0.935111 11.3235 1.29771 9.61699 2.00449C7.91047 2.71126 6.36042 3.74828 5.05591 5.05595L24.944 24.9441C26.9109 22.9774 28.2503 20.4716 28.793 17.7437C29.3356 15.0157 29.0572 12.1881 27.9927 9.61842C26.9283 7.04875 25.1258 4.85243 22.8131 3.30723C20.5004 1.76204 17.7814 0.937364 15 0.937512ZM24.2906 22.8844L7.1156 5.70939C9.44809 3.72788 12.4409 2.69672 15.4989 2.82091C18.5569 2.94511 21.4562 4.21556 23.6203 6.37969C25.7844 8.54381 27.0549 11.4431 27.1791 14.5011C27.3033 17.5591 26.2721 20.5519 24.2906 22.8844Z" fill="#D4483E"/>
</g>
<path d="M40.2198 21V10.52H41.8998L45.3878 16.712L46.4918 18.92H46.5558C46.5238 18.3867 46.4811 17.816 46.4278 17.208C46.3744 16.6 46.3478 16.0133 46.3478 15.448V10.52H47.8998V21H46.2198L42.7318 14.792L41.6278 12.6H41.5638C41.6064 13.1333 41.6491 13.6933 41.6918 14.28C41.7451 14.8667 41.7718 15.448 41.7718 16.024V21H40.2198ZM53.6493 21.192C52.9986 21.192 52.3959 21.032 51.8413 20.712C51.2866 20.392 50.8333 19.928 50.4813 19.32C50.1399 18.7013 49.9693 17.96 49.9693 17.096C49.9693 16.232 50.1399 15.496 50.4813 14.888C50.8333 14.2693 51.2866 13.8 51.8413 13.48C52.3959 13.1493 52.9986 12.984 53.6493 12.984C54.2893 12.984 54.8866 13.1493 55.4413 13.48C56.0066 13.8 56.4599 14.2693 56.8013 14.888C57.1533 15.496 57.3293 16.232 57.3293 17.096C57.3293 17.96 57.1533 18.7013 56.8013 19.32C56.4599 19.928 56.0066 20.392 55.4413 20.712C54.8866 21.032 54.2893 21.192 53.6493 21.192ZM53.6493 19.864C54.0653 19.864 54.4226 19.752 54.7213 19.528C55.0306 19.2933 55.2653 18.968 55.4253 18.552C55.5853 18.136 55.6653 17.6507 55.6653 17.096C55.6653 16.5413 55.5853 16.056 55.4253 15.64C55.2653 15.2133 55.0306 14.888 54.7213 14.664C54.4226 14.4293 54.0653 14.312 53.6493 14.312C53.2333 14.312 52.8759 14.4293 52.5773 14.664C52.2786 14.888 52.0439 15.2133 51.8733 15.64C51.7133 16.056 51.6332 16.5413 51.6332 17.096C51.6332 17.6507 51.7133 18.136 51.8733 18.552C52.0439 18.968 52.2786 19.2933 52.5773 19.528C52.8759 19.752 53.2333 19.864 53.6493 19.864ZM62.5948 21V10.52H64.4828L66.4028 15.848C66.5201 16.1893 66.6374 16.5413 66.7548 16.904C66.8721 17.256 66.9894 17.608 67.1068 17.96H67.1708C67.2881 17.608 67.4001 17.256 67.5068 16.904C67.6241 16.5413 67.7414 16.1893 67.8588 15.848L69.7468 10.52H71.6348V21H70.1308V15.784C70.1308 15.464 70.1414 15.1173 70.1628 14.744C70.1948 14.36 70.2268 13.976 70.2587 13.592C70.2908 13.208 70.3174 12.8613 70.3388 12.552H70.2748L69.4427 14.968L67.6028 19.976H66.5948L64.7548 14.968L63.9228 12.552H63.8588C63.8801 12.8613 63.9068 13.208 63.9388 13.592C63.9708 13.976 63.9974 14.36 64.0188 14.744C64.0508 15.1173 64.0668 15.464 64.0668 15.784V21H62.5948ZM76.1036 21.192C75.6556 21.192 75.2556 21.1013 74.9036 20.92C74.5623 20.728 74.2903 20.4667 74.0876 20.136C73.8956 19.7947 73.7996 19.3947 73.7996 18.936C73.7996 18.0933 74.173 17.4427 74.9196 16.984C75.6663 16.5253 76.8556 16.2053 78.4876 16.024C78.4876 15.7253 78.4396 15.4427 78.3436 15.176C78.2583 14.9093 78.1036 14.696 77.8796 14.536C77.6663 14.376 77.3676 14.296 76.9836 14.296C76.5676 14.296 76.1676 14.376 75.7836 14.536C75.4103 14.696 75.0583 14.8827 74.7276 15.096L74.1196 14.008C74.3863 13.8373 74.685 13.6773 75.0156 13.528C75.3463 13.368 75.6983 13.24 76.0716 13.144C76.4556 13.0373 76.8556 12.984 77.2716 12.984C77.9116 12.984 78.4396 13.1173 78.8556 13.384C79.2823 13.6507 79.597 14.0293 79.7996 14.52C80.0023 15.0107 80.1036 15.6027 80.1036 16.296V21H78.7756L78.6476 20.104H78.5996C78.2476 20.4027 77.8636 20.6587 77.4476 20.872C77.0316 21.0853 76.5836 21.192 76.1036 21.192ZM76.5996 19.912C76.941 19.912 77.261 19.832 77.5596 19.672C77.8583 19.512 78.1676 19.2827 78.4876 18.984V17.048C77.709 17.144 77.0903 17.272 76.6316 17.432C76.1836 17.592 75.8583 17.7893 75.6556 18.024C75.4636 18.2587 75.3676 18.52 75.3676 18.808C75.3676 19.192 75.485 19.4747 75.7196 19.656C75.9543 19.8267 76.2476 19.912 76.5996 19.912ZM84.5475 21.192C84.0035 21.192 83.4702 21.0907 82.9475 20.888C82.4355 20.6747 81.9875 20.4133 81.6035 20.104L82.3715 19.064C82.7128 19.3307 83.0595 19.5493 83.4115 19.72C83.7742 19.88 84.1688 19.96 84.5955 19.96C85.0648 19.96 85.4115 19.8587 85.6355 19.656C85.8595 19.4533 85.9715 19.2027 85.9715 18.904C85.9715 18.6693 85.8862 18.472 85.7155 18.312C85.5448 18.1413 85.3262 17.9973 85.0595 17.88C84.8035 17.7627 84.5315 17.6507 84.2435 17.544C83.8915 17.4053 83.5395 17.2453 83.1875 17.064C82.8462 16.8827 82.5582 16.648 82.3235 16.36C82.0995 16.072 81.9875 15.7093 81.9875 15.272C81.9875 14.6107 82.2328 14.0667 82.7235 13.64C83.2248 13.2027 83.9075 12.984 84.7715 12.984C85.2942 12.984 85.7688 13.0747 86.1955 13.256C86.6222 13.4373 86.9902 13.6507 87.2995 13.896L86.5475 14.904C86.2702 14.7013 85.9875 14.536 85.6995 14.408C85.4222 14.28 85.1235 14.216 84.8035 14.216C84.3662 14.216 84.0408 14.312 83.8275 14.504C83.6248 14.696 83.5235 14.9253 83.5235 15.192C83.5235 15.416 83.6035 15.6027 83.7635 15.752C83.9235 15.8907 84.1315 16.0133 84.3875 16.12C84.6435 16.2267 84.9155 16.3333 85.2035 16.44C85.5662 16.5787 85.9235 16.7387 86.2755 16.92C86.6275 17.1013 86.9208 17.3413 87.1555 17.64C87.3902 17.928 87.5075 18.3173 87.5075 18.808C87.5075 19.2453 87.3902 19.6453 87.1555 20.008C86.9315 20.3707 86.6008 20.6587 86.1635 20.872C85.7262 21.0853 85.1875 21.192 84.5475 21.192ZM89.232 21V9.656H90.816V17H90.864L93.952 13.176H95.728L93.072 16.344L96.032 21H94.272L92.144 17.448L90.816 18.984V21H89.232Z" fill="#152745"/>
<defs>
<clipPath id="clip0_92_442">
<rect width="30" height="30" fill="white"/>
</clipPath>
</defs>
</svg>
