<svg width="14" height="14" viewBox="0 0 14 14" fill="none" xmlns="http://www.w3.org/2000/svg">
<g clip-path="url(#clip0_92_437)">
<path fill-rule="evenodd" clip-rule="evenodd" d="M7 13.125C8.62445 13.125 10.1824 12.4797 11.331 11.331C12.4797 10.1824 13.125 8.62445 13.125 7C13.125 5.37555 12.4797 3.81763 11.331 2.66897C10.1824 1.52031 8.62445 0.875 7 0.875C5.37555 0.875 3.81763 1.52031 2.66897 2.66897C1.52031 3.81763 0.875 5.37555 0.875 7C0.875 8.62445 1.52031 10.1824 2.66897 11.331C3.81763 12.4797 5.37555 13.125 7 13.125ZM7 14C8.85652 14 10.637 13.2625 11.9497 11.9497C13.2625 10.637 14 8.85652 14 7C14 5.14348 13.2625 3.36301 11.9497 2.05025C10.637 0.737498 8.85652 0 7 0C5.14348 0 3.36301 0.737498 2.05025 2.05025C0.737498 3.36301 0 5.14348 0 7C0 8.85652 0.737498 10.637 2.05025 11.9497C3.36301 13.2625 5.14348 14 7 14Z" fill="#152745"/>
<path fill-rule="evenodd" clip-rule="evenodd" d="M9.59932 4.34878C9.72177 4.22739 9.88708 4.15908 10.0595 4.1586C10.2319 4.15813 10.3976 4.22553 10.5207 4.34624C10.6439 4.46695 10.7145 4.63127 10.7175 4.80367C10.7204 4.97607 10.6554 5.1427 10.5364 5.26753L7.04344 9.63378C6.98341 9.69844 6.91095 9.75033 6.83041 9.78635C6.74986 9.82237 6.66288 9.84178 6.57466 9.84341C6.48644 9.84505 6.3988 9.82887 6.31698 9.79586C6.23515 9.76285 6.16083 9.71368 6.09844 9.65128L3.78407 7.33603C3.71959 7.27595 3.66787 7.2035 3.63201 7.123C3.59614 7.0425 3.57685 6.9556 3.5753 6.86749C3.57374 6.77937 3.58995 6.69185 3.62296 6.61013C3.65596 6.52842 3.70509 6.45419 3.76741 6.39187C3.82972 6.32956 3.90395 6.28043 3.98567 6.24742C4.06738 6.21442 4.15491 6.19821 4.24302 6.19976C4.33114 6.20132 4.41804 6.22061 4.49854 6.25647C4.57904 6.29234 4.65149 6.34406 4.71157 6.40853L6.54382 8.23991L9.58269 4.36803C9.58811 4.36125 9.59396 4.35482 9.60019 4.34878H9.59932Z" fill="#152745"/>
</g>
<defs>
<clipPath id="clip0_92_437">
<rect width="14" height="14" fill="white"/>
</clipPath>
</defs>
</svg>
