<svg width="30" height="30" viewBox="0 0 30 30" fill="none" xmlns="http://www.w3.org/2000/svg">
<path d="M15.745 27.4463C17.0887 27.3513 18.3187 27.095 19.1737 26.2513C20.0462 25.3913 20.3238 24.1313 20.3238 22.575C20.3238 22.035 20.2525 21.3813 20.1775 20.7775C20.145 20.5275 20.1138 20.2875 20.0825 20.0625L20.0125 19.5263H22.575C23.515 19.5263 24.3825 19.3913 25.12 19.0213C25.885 18.6388 26.4475 18.0375 26.8138 17.2325C27.5025 15.715 27.4912 13.4725 27.0925 10.49L27.0287 10.0025C26.8612 8.74001 26.7188 7.66251 26.5337 6.77751C26.3262 5.78376 26.0412 4.90751 25.5137 4.21501C24.4012 2.75501 22.52 2.50001 19.785 2.50001C16.8713 2.50001 14.685 3.02251 12.855 3.53001L12.1025 3.74251C10.8238 4.10501 9.7875 4.40001 8.74 4.47501C8.68721 3.93415 8.43499 3.4323 8.03246 3.06721C7.62994 2.70212 7.10593 2.49993 6.5625 2.50001H4.6875C4.10734 2.50001 3.55094 2.73048 3.1407 3.14072C2.73047 3.55095 2.5 4.10735 2.5 4.68751V17.8125C2.5 19.02 3.48 20 4.6875 20H6.5625C7.11733 20 7.65141 19.7891 8.05663 19.4101C8.46184 19.0312 8.70791 18.5123 8.745 17.9588C8.96974 17.9811 9.19 18.0363 9.39875 18.1225C10.6 18.6413 12.8663 20.04 12.8663 23.3725V24.6888C12.8663 26.2138 14.1187 27.5613 15.745 27.4463ZM8.75 6.35251C10.0738 6.27251 11.3488 5.90876 12.6475 5.53751L13.3575 5.33751C15.115 4.85001 17.115 4.37501 19.785 4.37501C22.6313 4.37501 23.54 4.71751 24.0225 5.35126C24.2925 5.70501 24.5075 6.24876 24.6975 7.16126C24.8675 7.97376 25 8.97376 25.1712 10.2575L25.2337 10.7375C25.6338 13.7375 25.55 15.4813 25.1062 16.4563C24.9062 16.8963 24.6375 17.1663 24.2812 17.345C23.9 17.5363 23.3562 17.6513 22.575 17.6513H19.6125C18.7612 17.6513 17.9963 18.3638 18.0988 19.3113C18.1313 19.615 18.18 19.9825 18.23 20.3538L18.3175 21.0125C18.3925 21.615 18.4487 22.1638 18.4487 22.575C18.4487 23.9813 18.1825 24.5963 17.8575 24.9163C17.5138 25.2538 16.89 25.485 15.6138 25.5763C15.175 25.6063 14.7413 25.2338 14.7413 24.6888V23.3725C14.7413 18.935 11.6313 17.0438 10.1412 16.4013C9.67625 16.2013 9.19875 16.1113 8.75 16.0763V6.35251ZM4.6875 4.37501H6.5625C6.64538 4.37501 6.72487 4.40794 6.78347 4.46654C6.84208 4.52515 6.875 4.60463 6.875 4.68751V17.8125C6.875 17.8954 6.84208 17.9749 6.78347 18.0335C6.72487 18.0921 6.64538 18.125 6.5625 18.125H4.6875C4.60462 18.125 4.52513 18.0921 4.46653 18.0335C4.40792 17.9749 4.375 17.8954 4.375 17.8125V4.68751C4.375 4.51501 4.515 4.37501 4.6875 4.37501Z" fill="#FC6603" fill-opacity="0.9"/>
<path d="M8 5.59406V16.6348C10.1042 16.6348 14.2074 17.8393 13.7866 22.657C13.6829 23.8444 13.822 24.6294 14.0905 25.1382C15.0715 26.9969 18.6629 26.0233 19.4017 24.0557C20.0127 22.4283 19.8858 19.9298 19.5732 18.1404C27.5692 19.3448 27.0881 14.6246 26.938 12.62C26.6034 8.15101 25.2046 5.71245 23.8247 4.40026C22.6133 3.24834 20.8195 2.95712 19.1638 3.18741C15.9645 3.63237 10.5714 4.77636 8 5.59406Z" fill="#FC6603" fill-opacity="0.45"/>
</svg>
