<svg width="92" height="30" viewBox="0 0 92 30" fill="none" xmlns="http://www.w3.org/2000/svg">
<g clip-path="url(#clip0_92_459)">
<path d="M17.4403 8.59628C17.3014 8.58548 17.1618 8.60375 17.0296 8.65006C16.8974 8.69636 16.7751 8.76979 16.6697 8.86614C16.5642 8.9625 16.4778 9.0799 16.4152 9.21163C16.3526 9.34337 16.3152 9.48686 16.305 9.63392C16.3023 9.67527 16.3017 9.71675 16.3032 9.75818L18.405 9.92155C18.4327 9.76627 18.429 9.60655 18.3943 9.45287C18.3595 9.29918 18.2945 9.15502 18.2034 9.02986C18.1123 8.90469 17.9972 8.80135 17.8657 8.72662C17.7342 8.65189 17.5892 8.60747 17.4404 8.59628H17.4403Z" fill="#7B8BBA"/>
<path d="M6.9921 17.697C6.9921 17.697 6.97235 17.7045 6.9398 17.7209C6.0616 18.1643 6.6226 19.5845 7.5363 19.2304C7.66882 19.1788 7.79116 19.1016 7.8971 19.0028C8.14954 18.7686 8.435 18.5777 8.74315 18.4369C9.14275 18.2554 9.68365 18.0783 10.2296 18.1098C10.2296 18.11 8.71065 17.1073 6.9921 17.697Z" fill="#BAC9E8"/>
<path d="M6.99207 17.697C6.99207 17.697 8.96207 17.0568 11.0682 19.2458C11.5361 19.7139 11.9791 20.2091 12.3953 20.729C12.6814 21.0888 13.0832 21.3238 13.5232 21.3886C13.9632 21.4533 14.4103 21.3434 14.7783 21.0799L18.4397 18.4339L11.4388 15.6939L6.99207 17.697Z" fill="#7B8BBA"/>
<path d="M19.922 10.4698C21.3443 11.4036 22.6967 13.1343 22.4763 16.327C22.4575 16.601 22.3785 16.8665 22.2457 17.1024C22.1129 17.3383 21.9299 17.5382 21.7113 17.686C20.7922 18.3074 18.8355 19.0424 15.1438 18.1917C15.1438 18.1917 12.5417 17.6176 10.9346 15.921C10.9346 15.921 10.0335 11.1683 14.8808 9.75077C15.5561 9.55247 16.257 9.46919 16.957 9.50407L17.717 9.59121C18.4988 9.73007 19.2477 10.0285 19.922 10.4698Z" fill="#BAC9E8"/>
<path d="M19.9291 18.4076C20.3924 15.759 20.1608 13.4763 19.2384 11.617C18.708 10.5477 18.0778 9.90283 17.717 9.59175C17.4655 9.54658 17.2118 9.51741 16.957 9.50439C15.2709 10.2599 14.0562 11.6813 13.3436 13.7351C12.8664 15.1103 12.7386 16.4481 12.7091 17.2468C12.8249 17.3099 12.9397 17.3693 13.0535 17.4252C13.0872 15.8608 13.51 11.4265 17.13 9.83057C17.1922 9.80309 17.2602 9.79399 17.3268 9.80425C17.3935 9.8145 17.4563 9.84373 17.5085 9.8888C17.8429 10.1785 18.4285 10.7814 18.9285 11.7894C19.829 13.6046 20.041 15.853 19.5605 18.4759C19.6885 18.4557 19.8114 18.4329 19.9291 18.4076Z" fill="#7B8BBA"/>
<path d="M15 0.9375C12.2187 0.9375 9.49987 1.76225 7.1873 3.30746C4.87473 4.85267 3.07231 7.04893 2.00795 9.61851C0.943593 12.1881 0.665109 15.0156 1.20771 17.7435C1.75032 20.4713 3.08964 22.977 5.05632 24.9437C7.02299 26.9104 9.52869 28.2497 12.2565 28.7923C14.9844 29.3349 17.8119 29.0564 20.3815 27.9921C22.9511 26.9277 25.1473 25.1253 26.6925 22.8127C28.2378 20.5001 29.0625 17.7813 29.0625 15C29.0625 11.2704 27.5809 7.69354 24.9437 5.05631C22.3065 2.41908 18.7296 0.9375 15 0.9375ZM15 27.1875C12.6742 27.1881 10.3968 26.523 8.43688 25.2708C6.47693 24.0186 4.9163 22.2317 3.93934 20.121C2.96239 18.0104 2.60992 15.6642 2.92357 13.3596C3.23722 11.0551 4.20388 8.88843 5.70938 7.11563L22.8844 24.2906C20.6861 26.1661 17.8896 27.1936 15 27.1875ZM24.2906 22.8844L7.11563 5.70938C9.44812 3.72787 12.4409 2.69671 15.4989 2.8209C18.5569 2.94509 21.4562 4.21555 23.6203 6.37968C25.7845 8.5438 27.0549 11.4431 27.1791 14.5011C27.3033 17.5591 26.2721 20.5519 24.2906 22.8844Z" fill="#B73831"/>
<path d="M15 0.937512C13.1529 0.935111 11.3235 1.29771 9.61699 2.00449C7.91047 2.71126 6.36042 3.74828 5.05591 5.05595L24.944 24.9441C26.9109 22.9774 28.2503 20.4716 28.793 17.7437C29.3356 15.0157 29.0572 12.1881 27.9927 9.61842C26.9283 7.04875 25.1258 4.85243 22.8131 3.30723C20.5004 1.76204 17.7814 0.937364 15 0.937512ZM24.2906 22.8844L7.1156 5.70939C9.44809 3.72788 12.4409 2.69672 15.4989 2.82091C18.5569 2.94511 21.4562 4.21556 23.6203 6.37969C25.7844 8.54381 27.0549 11.4431 27.1791 14.5011C27.3033 17.5591 26.2721 20.5519 24.2906 22.8844Z" fill="#D4483E"/>
</g>
<path d="M39.5323 21V10.52H41.2123L44.7003 16.712L45.8043 18.92H45.8683C45.8363 18.3867 45.7936 17.816 45.7403 17.208C45.6869 16.6 45.6603 16.0133 45.6603 15.448V10.52H47.2123V21H45.5323L42.0443 14.792L40.9403 12.6H40.8763C40.9189 13.1333 40.9616 13.6933 41.0043 14.28C41.0576 14.8667 41.0843 15.448 41.0843 16.024V21H39.5323ZM52.9618 21.192C52.3111 21.192 51.7084 21.032 51.1538 20.712C50.5991 20.392 50.1458 19.928 49.7938 19.32C49.4524 18.7013 49.2818 17.96 49.2818 17.096C49.2818 16.232 49.4524 15.496 49.7938 14.888C50.1458 14.2693 50.5991 13.8 51.1538 13.48C51.7084 13.1493 52.3111 12.984 52.9618 12.984C53.6018 12.984 54.1991 13.1493 54.7538 13.48C55.3191 13.8 55.7724 14.2693 56.1138 14.888C56.4658 15.496 56.6418 16.232 56.6418 17.096C56.6418 17.96 56.4658 18.7013 56.1138 19.32C55.7724 19.928 55.3191 20.392 54.7538 20.712C54.1991 21.032 53.6018 21.192 52.9618 21.192ZM52.9618 19.864C53.3778 19.864 53.7351 19.752 54.0338 19.528C54.3431 19.2933 54.5778 18.968 54.7378 18.552C54.8978 18.136 54.9778 17.6507 54.9778 17.096C54.9778 16.5413 54.8978 16.056 54.7378 15.64C54.5778 15.2133 54.3431 14.888 54.0338 14.664C53.7351 14.4293 53.3778 14.312 52.9618 14.312C52.5458 14.312 52.1884 14.4293 51.8898 14.664C51.5911 14.888 51.3564 15.2133 51.1858 15.64C51.0258 16.056 50.9457 16.5413 50.9457 17.096C50.9457 17.6507 51.0258 18.136 51.1858 18.552C51.3564 18.968 51.5911 19.2933 51.8898 19.528C52.1884 19.752 52.5458 19.864 52.9618 19.864ZM65.9873 21.192C65.1126 21.192 64.3233 20.984 63.6193 20.568C62.9153 20.1413 62.3553 19.5227 61.9393 18.712C61.5339 17.9013 61.3313 16.9253 61.3313 15.784C61.3313 14.9307 61.4486 14.168 61.6833 13.496C61.9286 12.824 62.2646 12.2533 62.6913 11.784C63.1286 11.304 63.6353 10.9413 64.2113 10.696C64.7873 10.4507 65.4059 10.328 66.0673 10.328C66.7179 10.328 67.2939 10.4613 67.7953 10.728C68.2966 10.984 68.7073 11.288 69.0273 11.64L68.1473 12.696C67.8806 12.408 67.5766 12.1787 67.2353 12.008C66.9046 11.8373 66.5259 11.752 66.0993 11.752C65.4913 11.752 64.9526 11.912 64.4833 12.232C64.0246 12.552 63.6619 13.0107 63.3953 13.608C63.1393 14.2053 63.0113 14.9147 63.0113 15.736C63.0113 16.568 63.1339 17.288 63.3793 17.896C63.6246 18.4933 63.9766 18.9573 64.4353 19.288C64.8939 19.608 65.4326 19.768 66.0513 19.768C66.5313 19.768 66.9579 19.6667 67.3313 19.464C67.7153 19.2613 68.0619 18.9893 68.3713 18.648L69.2513 19.672C68.8353 20.152 68.3553 20.5253 67.8113 20.792C67.2779 21.0587 66.6699 21.192 65.9873 21.192ZM72.8068 21.192C72.3588 21.192 71.9588 21.1013 71.6068 20.92C71.2654 20.728 70.9934 20.4667 70.7908 20.136C70.5988 19.7947 70.5028 19.3947 70.5028 18.936C70.5028 18.0933 70.8761 17.4427 71.6228 16.984C72.3694 16.5253 73.5588 16.2053 75.1908 16.024C75.1908 15.7253 75.1428 15.4427 75.0468 15.176C74.9614 14.9093 74.8068 14.696 74.5828 14.536C74.3694 14.376 74.0708 14.296 73.6868 14.296C73.2708 14.296 72.8708 14.376 72.4868 14.536C72.1134 14.696 71.7614 14.8827 71.4308 15.096L70.8228 14.008C71.0894 13.8373 71.3881 13.6773 71.7188 13.528C72.0494 13.368 72.4014 13.24 72.7748 13.144C73.1588 13.0373 73.5588 12.984 73.9748 12.984C74.6148 12.984 75.1428 13.1173 75.5588 13.384C75.9854 13.6507 76.3001 14.0293 76.5028 14.52C76.7054 15.0107 76.8068 15.6027 76.8068 16.296V21H75.4788L75.3508 20.104H75.3028C74.9508 20.4027 74.5668 20.6587 74.1508 20.872C73.7348 21.0853 73.2868 21.192 72.8068 21.192ZM73.3028 19.912C73.6441 19.912 73.9641 19.832 74.2628 19.672C74.5614 19.512 74.8708 19.2827 75.1908 18.984V17.048C74.4121 17.144 73.7934 17.272 73.3348 17.432C72.8868 17.592 72.5614 17.7893 72.3588 18.024C72.1668 18.2587 72.0707 18.52 72.0707 18.808C72.0707 19.192 72.1881 19.4747 72.4228 19.656C72.6574 19.8267 72.9508 19.912 73.3028 19.912ZM79.1226 24.184V13.176H80.4506L80.5786 14.04H80.6266C80.968 13.752 81.3466 13.5067 81.7626 13.304C82.1786 13.0907 82.6053 12.984 83.0426 12.984C83.704 12.984 84.264 13.1493 84.7226 13.48C85.1813 13.8107 85.528 14.2747 85.7626 14.872C86.008 15.4693 86.1306 16.168 86.1306 16.968C86.1306 17.864 85.9706 18.6267 85.6506 19.256C85.3306 19.8853 84.9146 20.3653 84.4026 20.696C83.9013 21.0267 83.3573 21.192 82.7706 21.192C82.4186 21.192 82.0666 21.1173 81.7146 20.968C81.3626 20.808 81.0213 20.5893 80.6906 20.312L80.7386 21.64V24.184H79.1226ZM82.4506 19.848C82.8346 19.848 83.176 19.7413 83.4746 19.528C83.784 19.304 84.024 18.9787 84.1946 18.552C84.376 18.1253 84.4666 17.6027 84.4666 16.984C84.4666 16.44 84.4026 15.9707 84.2746 15.576C84.1466 15.1707 83.944 14.8613 83.6666 14.648C83.4 14.4347 83.048 14.328 82.6106 14.328C82.312 14.328 82.008 14.408 81.6986 14.568C81.4 14.7173 81.08 14.9573 80.7386 15.288V19.128C81.048 19.3947 81.352 19.5813 81.6506 19.688C81.9493 19.7947 82.216 19.848 82.4506 19.848Z" fill="#152745"/>
<defs>
<clipPath id="clip0_92_459">
<rect width="30" height="30" fill="white"/>
</clipPath>
</defs>
</svg>
