<svg width="27" height="27" viewBox="0 0 27 27" fill="none" xmlns="http://www.w3.org/2000/svg">
<g clip-path="url(#clip0_92_407)">
<path d="M13.4999 26.0357C20.4232 26.0357 26.0357 20.4233 26.0357 13.5C26.0357 6.57673 20.4232 0.964294 13.4999 0.964294C6.57666 0.964294 0.964233 6.57673 0.964233 13.5C0.964233 20.4233 6.57666 26.0357 13.4999 26.0357Z" stroke="#152745" stroke-opacity="0.5" stroke-width="2" stroke-linecap="round" stroke-linejoin="round"/>
<path d="M10.0286 10.4143C10.0286 9.72772 10.2322 9.05655 10.6136 8.48568C10.9951 7.91481 11.5372 7.46986 12.1715 7.20712C12.8059 6.94438 13.5038 6.87563 14.1772 7.00958C14.8506 7.14352 15.4692 7.47414 15.9547 7.95963C16.4402 8.44512 16.7708 9.06367 16.9047 9.73706C17.0387 10.4105 16.9699 11.1084 16.7072 11.7428C16.4444 12.3771 15.9995 12.9192 15.4286 13.3007C14.8577 13.6821 14.1866 13.8857 13.5 13.8857V16.2" stroke="#152745" stroke-opacity="0.5" stroke-width="2" stroke-linecap="round" stroke-linejoin="round"/>
<path d="M13.5 18.5143C13.2712 18.5143 13.0475 18.5821 12.8572 18.7093C12.6669 18.8364 12.5186 19.0172 12.431 19.2286C12.3434 19.44 12.3205 19.6727 12.3651 19.8972C12.4098 20.1216 12.52 20.3278 12.6818 20.4896C12.8436 20.6515 13.0498 20.7617 13.2743 20.8063C13.4988 20.851 13.7314 20.8281 13.9429 20.7405C14.1543 20.6529 14.335 20.5046 14.4622 20.3143C14.5893 20.124 14.6572 19.9003 14.6572 19.6714C14.6532 19.3658 14.53 19.0738 14.3138 18.8576C14.0977 18.6415 13.8057 18.5183 13.5 18.5143Z" fill="#152745" fill-opacity="0.5"/>
</g>
<defs>
<clipPath id="clip0_92_407">
<rect width="27" height="27" fill="white"/>
</clipPath>
</defs>
</svg>
